<svg xmlns="http://www.w3.org/2000/svg" viewBox="0 0 700 320" fill="none">
  <rect width="700" height="320" rx="8" fill="#0f172a" stroke="#1e293b" stroke-width="1"/>
  <rect x="200" y="30" width="120" height="40" rx="6" fill="#06b6d4" fill-opacity="0.15" stroke="#06b6d4" stroke-width="1.5"/>
  <rect x="400" y="30" width="120" height="40" rx="6" fill="#06b6d4" fill-opacity="0.15" stroke="#06b6d4" stroke-width="1.5"/>
  <text x="260" y="56" text-anchor="middle" fill="#22d3ee" font-family="system-ui,sans-serif" font-size="12" font-weight="600">Spine 1</text>
  <text x="460" y="56" text-anchor="middle" fill="#22d3ee" font-family="system-ui,sans-serif" font-size="12" font-weight="600">Spine 2</text>
  <rect x="100" y="200" width="100" height="40" rx="6" fill="#1e293b" stroke="#64748b" stroke-width="1.5"/>
  <rect x="250" y="200" width="100" height="40" rx="6" fill="#1e293b" stroke="#64748b" stroke-width="1.5"/>
  <rect x="400" y="200" width="100" height="40" rx="6" fill="#1e293b" stroke="#64748b" stroke-width="1.5"/>
  <rect x="550" y="200" width="100" height="40" rx="6" fill="#1e293b" stroke="#64748b" stroke-width="1.5"/>
  <text x="150" y="226" text-anchor="middle" fill="#94a3b8" font-family="system-ui,sans-serif" font-size="11">Leaf 1</text>
  <text x="300" y="226" text-anchor="middle" fill="#94a3b8" font-family="system-ui,sans-serif" font-size="11">Leaf 2</text>
  <text x="450" y="226" text-anchor="middle" fill="#94a3b8" font-family="system-ui,sans-serif" font-size="11">Leaf 3</text>
  <text x="600" y="226" text-anchor="middle" fill="#94a3b8" font-family="system-ui,sans-serif" font-size="11">Leaf 4</text>
  <line x1="150" y1="200" x2="260" y2="70" stroke="#06b6d4" stroke-width="1.5" opacity="0.5"/>
  <line x1="150" y1="200" x2="460" y2="70" stroke="#06b6d4" stroke-width="1.5" opacity="0.5"/>
  <line x1="300" y1="200" x2="260" y2="70" stroke="#06b6d4" stroke-width="1.5" opacity="0.5"/>
  <line x1="300" y1="200" x2="460" y2="70" stroke="#06b6d4" stroke-width="1.5" opacity="0.5"/>
  <line x1="450" y1="200" x2="260" y2="70" stroke="#06b6d4" stroke-width="1.5" opacity="0.5"/>
  <line x1="450" y1="200" x2="460" y2="70" stroke="#06b6d4" stroke-width="1.5" opacity="0.5"/>
  <line x1="600" y1="200" x2="260" y2="70" stroke="#06b6d4" stroke-width="1.5" opacity="0.5"/>
  <line x1="600" y1="200" x2="460" y2="70" stroke="#06b6d4" stroke-width="1.5" opacity="0.5"/>
  <text x="350" y="290" text-anchor="middle" fill="#64748b" font-family="system-ui,sans-serif" font-size="11">Spine-Leaf Fabric (Full Mesh)</text>
</svg>
