<svg xmlns="http://www.w3.org/2000/svg" viewBox="0 0 800 450" fill="none">
  <rect width="800" height="450" fill="#0f172a"/>
  <rect width="800" height="450" fill="url(#grid)" opacity="0.4"/>
  <defs>
    <pattern id="grid" width="40" height="40" patternUnits="userSpaceOnUse">
      <path d="M40 0H0V40" stroke="#06b6d4" stroke-width="0.5" opacity="0.15"/>
    </pattern>
    <linearGradient id="glow" x1="0" y1="0" x2="800" y2="450">
      <stop stop-color="#06b6d4" stop-opacity="0.15"/>
      <stop offset="1" stop-color="#3b82f6" stop-opacity="0.05"/>
    </linearGradient>
  </defs>
  <rect width="800" height="450" fill="url(#glow)"/>
  <circle cx="400" cy="225" r="50" fill="#06b6d4" fill-opacity="0.15" stroke="#06b6d4" stroke-width="2"/>
  <text x="400" y="232" text-anchor="middle" fill="#22d3ee" font-family="system-ui,sans-serif" font-size="14" font-weight="700">CORE</text>
  <circle cx="200" cy="120" r="35" fill="#1e293b" stroke="#64748b" stroke-width="1.5"/>
  <circle cx="600" cy="120" r="35" fill="#1e293b" stroke="#64748b" stroke-width="1.5"/>
  <circle cx="150" cy="330" r="35" fill="#1e293b" stroke="#64748b" stroke-width="1.5"/>
  <circle cx="650" cy="330" r="35" fill="#1e293b" stroke="#64748b" stroke-width="1.5"/>
  <line x1="235" y1="145" x2="355" y2="195" stroke="#06b6d4" stroke-width="2" opacity="0.6"/>
  <line x1="565" y1="145" x2="445" y2="195" stroke="#06b6d4" stroke-width="2" opacity="0.6"/>
  <line x1="185" y1="305" x2="355" y2="255" stroke="#06b6d4" stroke-width="2" opacity="0.6"/>
  <line x1="615" y1="305" x2="445" y2="255" stroke="#06b6d4" stroke-width="2" opacity="0.6"/>
  <circle cx="200" cy="120" r="6" fill="#22d3ee"/>
  <circle cx="600" cy="120" r="6" fill="#22d3ee"/>
  <circle cx="150" cy="330" r="6" fill="#22d3ee"/>
  <circle cx="650" cy="330" r="6" fill="#22d3ee"/>
  <text x="400" y="420" text-anchor="middle" fill="#64748b" font-family="system-ui,sans-serif" font-size="13">Routing &amp; Switching</text>
</svg>
