<svg xmlns="http://www.w3.org/2000/svg" viewBox="0 0 800 450" fill="none">
  <rect width="800" height="450" fill="#0f172a"/>
  <defs>
    <linearGradient id="sg" x1="400" y1="80" x2="400" y2="370">
      <stop stop-color="#06b6d4" stop-opacity="0.2"/>
      <stop offset="1" stop-color="#06b6d4" stop-opacity="0"/>
    </linearGradient>
  </defs>
  <rect width="800" height="450" fill="url(#sg)"/>
  <path d="M400 90 L520 140 L520 240 C520 310 400 360 400 360 C400 360 280 310 280 240 L280 140 Z" fill="#1e293b" stroke="#06b6d4" stroke-width="2"/>
  <path d="M400 160 L460 190 L460 250 C460 295 400 325 400 325 C400 325 340 295 340 250 L340 190 Z" fill="#06b6d4" fill-opacity="0.15" stroke="#22d3ee" stroke-width="1.5"/>
  <rect x="120" y="180" width="100" height="60" rx="6" fill="#1e293b" stroke="#ef4444" stroke-width="1.5" stroke-opacity="0.6"/>
  <rect x="580" y="180" width="100" height="60" rx="6" fill="#1e293b" stroke="#22c55e" stroke-width="1.5" stroke-opacity="0.6"/>
  <line x1="220" y1="210" x2="280" y2="210" stroke="#64748b" stroke-width="1.5" stroke-dasharray="6 4"/>
  <line x1="520" y1="210" x2="580" y2="210" stroke="#64748b" stroke-width="1.5" stroke-dasharray="6 4"/>
  <text x="170" y="218" text-anchor="middle" fill="#ef4444" font-family="system-ui,sans-serif" font-size="11">BLOCK</text>
  <text x="630" y="218" text-anchor="middle" fill="#22c55e" font-family="system-ui,sans-serif" font-size="11">ALLOW</text>
  <text x="400" y="420" text-anchor="middle" fill="#64748b" font-family="system-ui,sans-serif" font-size="13">Network Security</text>
</svg>
